<svg xmlns="http://www.w3.org/2000/svg"
shape-rendering="geometricPrecision"
width="4000" height="4000" viewBox="0 0 1024 1024">
  <metadata>null</metadata>

<path d="
M 185.544 620.194
C 192.278 620.711 199.247 620.21 206.011 620.239
C 207.842 620.246 209.674 620.24 211.505 620.229
C 212.147 620.226 212.938 620.045 213.389 620.495
C 215.278 626.294 217.66 632.069 219.98 637.709
C 223.531 646.34 226.606 655.197 230.005 663.889
C 231.598 667.96 233.137 672.072 234.651 676.169
C 235.206 677.67 235.606 680.165 236.766 681.26
C 237.714 681.033 238.238 678.562 238.55 677.718
C 239.991 673.819 241.324 669.881 242.787 665.99
C 246.929 654.974 251.355 644.051 255.803 633.155
C 257.545 628.888 259.004 624.469 260.965 620.296
C 263.796 619.747 267.121 620.202 270.01 620.194
C 276.013 620.176 282.055 620.063 288.051 620.312
C 286.687 625.085 283.999 629.779 282.07 634.369
C 277.676 644.823 272.966 655.138 268.469 665.547
C 263.881 676.164 259.88 687.062 254.98 697.547
C 252.586 702.67 250.944 708.259 248.274 713.245
C 246.511 713.672 244.317 713.263 242.499 713.263
C 236.844 713.263 230.621 712.545 225.04 713.453
C 223.474 711.227 222.657 707.913 221.597 705.393
C 219.306 699.947 216.966 694.521 214.621 689.096
C 207.934 673.626 201.458 658.039 194.975 642.48
C 191.895 635.089 189.211 627.305 185.544 620.194 Z"
opacity="1" fill="rgb(1,3,1)" fill-rule="evenodd" />
<path d="
M 245.409 418.354
C 251.491 417.434 257.917 417.892 264.059 417.728
C 266.124 417.673 269.539 416.69 271.446 417.498
C 275.771 419.331 279.783 423.292 283.589 426.015
C 291.554 431.712 299.598 437.302 307.594 442.956
C 337.173 463.87 366.805 484.802 396.713 505.245
C 407.024 512.293 416.958 519.887 427.286 526.915
C 430.514 529.112 433.714 531.351 436.941 533.546
C 438.372 534.519 440.53 535.489 441.458 536.991
C 438.108 539.204 434.296 540.7 430.963 543.041
C 429.979 543.733 427.766 546.179 426.635 546.257
C 423.201 544.509 420.171 541.849 417.016 539.655
C 412.111 536.244 407.215 532.805 402.356 529.331
C 387.754 518.889 372.873 508.84 358.341 498.299
C 345.937 489.3 333.277 480.609 320.64 471.942
C 295.259 454.535 270.334 436.382 245.409 418.354 Z"
opacity="1" fill="rgb(4,206,40)" fill-rule="evenodd" />
<path d="
M 292.425 663.12
C 292.878 657.051 294.226 650.992 296.987 645.525
C 301.071 637.441 307.945 629.629 315.916 625.177
C 335.918 614.002 363.281 615.808 379.522 633.008
C 384.25 638.016 387.703 643.699 390.096 650.152
C 392.491 656.608 393.248 663.845 392.759 670.682
C 392.344 676.488 390.67 682.347 388.297 687.651
C 386.175 692.394 383.025 696.535 379.455 700.291
C 358.383 722.457 320.907 719.929 302.197 696.125
C 299.037 692.105 296.572 687.52 294.928 682.68
C 292.801 676.419 291.932 669.717 292.425 663.12 Z
M 317.971 661.592
C 316.025 671.757 320.546 684.066 329.617 689.401
C 344.212 697.984 363.652 689.762 366.924 672.906
C 368.112 666.785 367.557 659.845 364.687 654.225
C 358.625 642.356 342.897 636.813 331.008 643.204
C 323.982 646.98 319.453 653.851 317.971 661.592 Z"
opacity="1" fill="rgb(1,3,0)" fill-rule="evenodd" />
<path d="
M 342.33 356.014
C 347.919 350.566 354.131 345.647 360.115 340.633
C 361.557 339.425 363.028 338.252 364.508 337.092
C 364.69 336.95 366.146 336.185 366.13 336.117
C 362.896 333.565 363.92 327.692 363.652 323.993
C 363.543 322.488 363.024 320.862 363.448 319.396
C 364.836 318.652 367.426 319.383 369.016 319.367
C 374.02 319.318 380.663 319.811 384.635 316.213
C 384.844 315.371 384.485 313.1 384.099 312.36
C 379.581 311.712 375.091 311.443 370.57 310.892
C 367.787 310.553 365.031 309.908 362.238 309.699
C 362.111 312.76 363.041 315.906 362.807 318.903
C 357.379 322.392 352.493 326.886 347.514 330.981
C 345.831 332.366 344.213 334.627 342.274 335.584
C 341.435 324.025 342.294 312.1 342.281 300.504
C 342.255 276.171 342.265 251.834 342.36 227.502
C 342.393 219.007 342.505 210.499 342.376 202.005
C 342.346 200.001 342.287 197.98 342.354 195.978
C 342.362 195.755 342.445 194.292 342.698 194.269
C 342.893 194.252 344.27 195.448 344.55 195.684
C 346.068 196.966 347.732 198.076 349.306 199.29
C 355.743 204.254 362.443 208.987 369.05 213.725
C 387.415 226.893 405.35 240.716 423.432 254.267
C 428.973 258.419 434.489 262.613 440.102 266.667
C 442.397 268.324 444.787 270.74 447.362 271.907
C 449.737 272.983 453.636 272.281 456.19 272.261
C 462.795 272.209 469.401 272.253 476.006 272.248
C 494.839 272.234 513.673 272.25 532.506 272.26
C 538.34 272.262 544.175 272.255 550.009 272.233
C 552.851 272.222 556.268 271.705 559.028 272.344
C 554.892 276.893 551.698 282.657 548.027 287.606
C 538.89 299.921 529.961 312.383 520.767 324.658
C 517.277 329.316 513.778 334.016 510.462 338.797
C 509.425 340.293 507.088 342.727 506.92 344.581
C 506.778 346.135 507.872 348.39 508.255 349.914
C 509.405 354.489 510.821 358.984 512.021 363.523
C 512.57 363.412 513.005 362.511 513.303 362.086
C 514.29 360.681 515.279 359.277 516.27 357.874
C 520.178 352.338 524.251 346.913 528.206 341.411
C 539.264 326.029 550.42 310.691 561.61 295.405
C 564.765 291.094 567.74 286.648 570.967 282.391
C 573.423 279.15 576.493 275.739 577.929 271.892
C 582.453 267.52 588.049 264.17 592.982 260.264
C 608.587 247.906 625.084 236.72 640.793 224.49
C 649.469 217.735 658.444 211.274 667.342 204.814
C 671.967 201.456 676.399 196.927 681.63 194.545
C 681.921 205.059 681.429 215.672 681.474 226.213
C 681.591 253.297 681.636 280.403 681.649 307.497
C 681.654 318.674 681.596 329.825 681.64 340.999
C 681.659 346.028 680.96 351.7 681.727 356.659
C 681.973 358.245 683.092 359.593 683.775 361.015
C 685.384 364.367 686.887 367.765 688.482 371.12
C 693.415 381.496 698.056 392.002 703.06 402.346
C 705 406.355 706.857 410.405 708.876 414.374
C 709.285 415.18 711.046 417.479 710.818 418.271
C 705.063 421.796 699.585 425.908 694.046 429.765
C 681.993 438.158 669.797 446.377 657.698 454.706
C 629.674 473.997 601.404 492.959 573.526 512.469
C 559.368 522.377 545.204 532.292 530.864 541.938
C 526.57 544.826 522.342 547.823 518.01 550.653
C 516.198 551.837 514.092 553.91 512.011 554.488
C 510.121 554.113 507.95 551.928 506.339 550.853
C 502.351 548.19 498.451 545.409 494.483 542.721
C 481.337 533.815 468.177 524.925 455.154 515.844
C 422.629 493.163 389.892 470.791 357.165 448.404
C 348.34 442.368 339.488 436.349 330.731 430.219
C 325.027 426.226 319.412 421.93 313.506 418.244
C 313.461 416.85 314.862 415.126 315.445 413.818
C 317.17 409.947 318.969 406.099 320.815 402.285
C 325.802 391.982 330.458 381.512 335.482 371.231
C 337.805 366.479 341.655 361.27 342.33 356.014 Z
M 398.739 364.389
C 398.772 380.781 399.096 397.93 409.696 411.466
C 412.096 414.53 414.827 417.103 417.879 419.509
C 421.157 422.095 424.692 424.385 428.644 425.816
C 443.426 431.165 457.495 428.532 471.186 421.555
C 474.148 420.045 476.938 418.364 479.807 416.698
C 480.989 416.012 482.646 416.127 482.662 414.657
C 478.908 413.391 475.415 410.746 472.042 408.7
C 466.847 405.548 461.609 402.463 456.436 399.275
C 444.541 391.944 432.597 384.703 420.664 377.434
C 413.384 372.998 406.269 368.379 398.739 364.389 Z
M 541.945 414.494
C 541.817 414.712 541.69 414.929 541.562 415.147
C 544.034 416.298 546.321 417.969 548.708 419.304
C 554.925 422.784 561.79 426.16 568.784 427.726
C 584.245 431.187 600.67 426.607 611.643 415.009
C 616.138 410.258 619.442 404.419 621.755 398.326
C 624.308 391.6 625.247 384.423 625.288 377.268
C 625.304 374.346 625.269 371.425 625.279 368.504
C 625.283 367.163 625.014 365.583 625.263 364.273
C 615.952 368.99 607.278 375.126 598.337 380.503
C 579.525 391.817 560.864 403.36 541.945 414.494 Z"
opacity="1" fill="rgb(1,3,0)" fill-rule="evenodd" />
<path d="
M 342.274 335.584
C 344.213 334.627 345.831 332.366 347.514 330.981
C 352.493 326.886 357.379 322.392 362.807 318.903
C 363.041 315.906 362.111 312.76 362.238 309.699
C 365.031 309.908 367.787 310.553 370.57 310.892
C 375.091 311.443 379.581 311.712 384.099 312.36
C 384.485 313.1 384.844 315.371 384.635 316.213
C 380.663 319.811 374.02 319.318 369.016 319.367
C 367.426 319.383 364.836 318.652 363.448 319.396
C 363.024 320.862 363.543 322.488 363.652 323.993
C 363.92 327.692 362.896 333.565 366.13 336.117
C 366.146 336.185 364.69 336.95 364.508 337.092
C 363.028 338.252 361.557 339.425 360.115 340.633
C 354.131 345.647 347.919 350.566 342.33 356.014
C 343.237 349.38 342.109 342.283 342.274 335.584 Z"
opacity="1" fill="rgb(3,221,40)" fill-rule="evenodd" />
<path d="
M 347.495 737.621
C 347.767 735.563 347.698 733.34 347.579 731.271
C 348.315 730.279 351.285 730.794 352.508 730.778
C 357.371 730.714 362.646 730.382 367.471 730.961
C 367.031 738.08 367.439 745.371 367.453 752.507
C 367.476 764.507 367.38 776.508 367.405 788.508
C 367.424 797.675 367.415 806.841 367.422 816.008
C 367.427 821.079 367.104 826.246 367.664 831.287
C 361.054 832.17 354.129 830.647 347.48 831.383
C 346.603 829.226 347.325 825.34 347.36 822.999
C 347.455 816.666 347.384 810.332 347.383 803.998
C 347.381 789.165 347.343 774.332 347.379 759.498
C 347.397 752.227 347.074 744.881 347.495 737.621 Z"
opacity="1" fill="rgb(1,3,1)" fill-rule="evenodd" />
<path d="
M 386.898 735.087
C 388.85 723.215 407.088 722.193 410.124 733.949
C 410.529 735.518 410.556 737.244 410.284 738.837
C 408.273 750.63 389.631 751.657 387.017 739.728
C 386.69 738.235 386.65 736.595 386.898 735.087 Z"
opacity="1" fill="rgb(1,3,1)" fill-rule="evenodd" />
<path d="
M 388.812 757.753
C 393.044 757.735 397.276 757.764 401.51 757.705
C 403.759 757.673 406.264 757.295 408.477 757.666
C 408.518 773.898 408.453 790.23 408.434 806.511
C 408.424 814.675 409.029 823.125 408.392 831.257
C 401.963 831.38 395.325 830.796 388.928 831.482
C 388.154 830.983 388.709 827.939 388.716 827.003
C 388.751 822.504 388.699 818.004 388.687 813.504
C 388.637 794.921 388.889 776.334 388.812 757.753 Z"
opacity="1" fill="rgb(1,3,1)" fill-rule="evenodd" />
<path d="
M 398.739 364.389
C 406.269 368.379 413.384 372.998 420.664 377.434
C 432.597 384.703 444.541 391.944 456.436 399.275
C 461.609 402.463 466.847 405.548 472.042 408.7
C 475.415 410.746 478.908 413.391 482.662 414.657
C 482.646 416.127 480.989 416.012 479.807 416.698
C 476.938 418.364 474.148 420.045 471.186 421.555
C 457.495 428.532 443.426 431.165 428.644 425.816
C 424.692 424.385 421.157 422.095 417.879 419.509
C 414.827 417.103 412.096 414.53 409.696 411.466
C 399.096 397.93 398.772 380.781 398.739 364.389 Z"
opacity="1" fill="rgb(6,215,41)" fill-rule="evenodd" />
<path d="
M 407.943 591.588
C 410.808 578.514 428.531 576.38 435.401 587.313
C 436.337 588.803 437.017 590.517 437.3 592.258
C 437.627 594.264 437.536 596.383 437.06 598.354
C 436.575 600.366 435.56 602.162 434.227 603.73
C 430.934 607.604 426.129 609.662 421.043 609.13
C 412.609 608.246 406.101 599.994 407.943 591.588 Z"
opacity="1" fill="rgb(1,3,0)" fill-rule="evenodd" />
<path d="
M 409.994 627.119
C 410.237 625.003 410.085 622.819 410.088 620.692
C 412.467 619.917 415.518 620.41 418.009 620.389
C 423.713 620.34 429.426 620.574 435.127 620.349
C 435.781 622.674 435.132 626.064 435.131 628.498
C 435.128 634.331 435.167 640.164 435.134 645.997
C 435.054 660.33 435.211 674.665 435.179 688.998
C 435.167 694.501 435.182 700.003 435.23 705.506
C 435.252 708.034 434.98 710.757 435.292 713.259
C 432.012 712.833 428.32 713.291 425 713.289
C 420.046 713.287 414.914 712.886 409.985 713.414
C 409.411 709.927 409.865 706.037 409.849 702.504
C 409.819 695.338 409.818 688.173 409.828 681.007
C 409.852 663.113 409.023 644.987 409.994 627.119 Z"
opacity="1" fill="rgb(1,3,0)" fill-rule="evenodd" />
<path d="
M 428.918 757.803
C 433.279 757.705 437.649 757.771 442.012 757.733
C 444.13 757.714 446.595 757.355 448.667 757.76
C 448.752 761.108 448.06 764.568 448.499 767.898
C 450.264 766.887 451.574 764.503 453.098 763.102
C 456.183 760.265 460.126 758.174 464.148 757.032
C 478.27 753.022 494.019 760.217 498.169 774.664
C 499.961 780.904 499.409 787.707 499.379 794.124
C 499.342 801.915 499.369 809.707 499.335 817.498
C 499.315 822.108 499.035 826.83 499.35 831.428
C 492.741 831.416 485.976 830.912 479.386 831.393
C 479.102 830.416 479.332 829.208 479.336 828.196
C 479.344 825.815 479.37 823.434 479.381 821.053
C 479.418 813.045 479.517 805.046 479.567 797.04
C 479.598 792.09 479.996 786.723 478.052 782.06
C 473.254 770.551 456.453 772.085 451.024 782.034
C 448.197 787.215 448.684 792.899 448.704 798.594
C 448.731 806.063 448.755 813.533 448.758 821.003
C 448.759 824.275 449.32 828.021 448.847 831.244
C 442.168 830.749 435.302 831.943 428.635 831.254
C 428.345 806.79 429.482 782.262 428.918 757.803 Z"
opacity="1" fill="rgb(1,3,1)" fill-rule="evenodd" />
<path d="
M 448.293 244.174
C 453.358 239.615 457.883 234.193 462.64 229.293
C 472.904 218.719 483.244 208.275 493.768 197.962
C 497.784 194.026 501.764 190.04 505.728 186.051
C 507.27 184.499 509.341 181.528 511.398 180.76
C 514.234 183.457 516.806 186.485 519.598 189.242
C 533.049 202.528 546.217 216.09 559.34 229.708
C 563.165 233.677 566.985 237.67 570.681 241.759
C 571.618 242.796 574.54 244.961 574.521 246.368
C 572.61 249.44 568.923 252.247 566.322 254.787
C 565.806 255.291 564.492 257.294 563.742 257.24
C 561.983 256.113 560.532 253.926 559.067 252.427
C 555.833 249.119 552.578 245.825 549.406 242.457
C 540.987 233.517 532.341 224.725 523.706 215.993
C 519.729 211.972 516.007 207.151 511.568 203.656
C 510.355 203.956 509.201 205.776 508.273 206.652
C 505.66 209.12 503.137 211.67 500.625 214.241
C 493.662 221.367 486.535 228.346 479.487 235.387
C 477.489 237.383 475.518 239.405 473.519 241.4
C 472.384 242.532 471.088 244.056 469.631 244.772
C 467.903 245.622 465.014 244.94 463.15 244.879
C 458.197 244.717 453.234 244.555 448.29 244.456
C 448.291 244.362 448.292 244.268 448.293 244.174 Z"
opacity="1" fill="rgb(4,210,40)" fill-rule="evenodd" />
<path d="
M 451.482 665.117
C 452.462 655.763 454.024 647.24 458.922 639.008
C 469.283 621.591 490.151 613.694 509.345 620.169
C 513.308 621.506 517.197 623.616 520.418 626.289
C 522.243 627.804 523.706 629.707 525.515 631.217
C 525.609 631.259 525.573 629.606 525.572 629.396
C 525.569 628.432 525.618 627.465 525.645 626.501
C 525.737 623.17 525.743 619.838 525.75 616.507
C 525.77 606.941 525.793 597.37 526.018 587.806
C 526.929 586.766 530.828 587.418 532.254 587.447
C 538.392 587.574 544.525 587.456 550.661 587.602
C 551.107 588.42 550.854 589.574 550.822 590.493
C 550.747 592.658 550.802 594.833 550.799 596.999
C 550.79 605.333 550.769 613.666 550.784 622
C 550.836 652.409 550.741 682.821 550.845 713.229
C 544.926 712.983 538.929 713.299 532.999 713.279
C 531.337 713.273 529.672 713.256 528.01 713.207
C 527.387 713.189 526.426 713.414 525.884 713.113
C 525.793 709.125 526.467 704.651 525.932 700.742
C 525.411 700.631 524.912 701.612 524.599 701.991
C 523.277 703.594 521.879 705.098 520.361 706.518
C 515.574 710.993 509.655 713.894 503.238 715.191
C 499.006 716.046 494.766 716.072 490.507 715.465
C 466.241 712.006 450.645 688.749 451.482 665.117 Z
M 477.007 663.627
C 476.658 671.815 478.515 680.612 484.567 686.554
C 494.415 696.224 510.842 694.756 519.796 684.588
C 523.904 679.923 525.915 674.138 526.24 667.975
C 526.7 659.267 522.942 650.408 515.853 645.168
C 503.412 635.973 485.28 640.327 479.208 654.727
C 477.999 657.591 477.14 660.503 477.007 663.627 Z"
opacity="1" fill="rgb(1,3,0)" fill-rule="evenodd" />
<path d="
M 559.028 272.344
C 560.553 271.908 562.441 272.164 564.018 272.222
C 566.8 272.323 569.581 272.238 572.363 272.247
C 574.16 272.253 576.21 272.461 577.929 271.892
C 576.493 275.739 573.423 279.15 570.967 282.391
C 567.74 286.648 564.765 291.094 561.61 295.405
C 550.42 310.691 539.264 326.029 528.206 341.411
C 524.251 346.913 520.178 352.338 516.27 357.874
C 515.279 359.277 514.29 360.681 513.303 362.086
C 513.005 362.511 512.57 363.412 512.021 363.523
C 510.821 358.984 509.405 354.489 508.255 349.914
C 507.872 348.39 506.778 346.135 506.92 344.581
C 507.088 342.727 509.425 340.293 510.462 338.797
C 513.778 334.016 517.277 329.316 520.767 324.658
C 529.961 312.383 538.89 299.921 548.027 287.606
C 551.698 282.657 554.892 276.893 559.028 272.344 Z"
opacity="1" fill="rgb(4,219,41)" fill-rule="evenodd" />
<path d="
M 517.917 757.781
C 524.542 757.203 531.261 758.234 537.882 757.559
C 538.148 760.82 537.776 764.222 537.775 767.5
C 537.774 775.333 537.788 783.167 537.788 791
C 537.789 796.714 537.251 803.343 540.105 808.525
C 546.049 819.315 561.36 815.785 566.319 806.103
C 568.755 801.347 567.917 795.151 567.925 790.001
C 567.94 779.265 567.88 768.527 567.907 757.792
C 574.668 757.704 581.444 757.884 588.201 757.623
C 587.942 766.55 588.262 775.502 588.101 784.434
C 587.82 799.986 587.475 815.72 588.221 831.242
C 581.538 830.935 574.705 831.818 568.043 831.17
C 568.182 828.402 568.408 825.152 567.958 822.425
C 566.232 823.325 564.882 825.726 563.279 826.972
C 559.626 829.814 555.256 831.725 550.754 832.75
C 536.998 835.884 523.469 826.884 519.363 813.862
C 517.304 807.332 517.775 800.26 517.76 793.507
C 517.732 781.621 518.259 769.654 517.917 757.781 Z"
opacity="1" fill="rgb(1,3,1)" fill-rule="evenodd" />
<path d="
M 541.945 414.494
C 560.864 403.36 579.525 391.817 598.337 380.503
C 607.278 375.126 615.952 368.99 625.263 364.273
C 625.014 365.583 625.283 367.163 625.279 368.504
C 625.269 371.425 625.304 374.346 625.288 377.268
C 625.247 384.423 624.308 391.6 621.755 398.326
C 619.442 404.419 616.138 410.258 611.643 415.009
C 600.67 426.607 584.245 431.187 568.784 427.726
C 561.79 426.16 554.925 422.784 548.708 419.304
C 546.321 417.969 544.034 416.298 541.562 415.147
C 541.69 414.929 541.817 414.712 541.945 414.494 Z"
opacity="1" fill="rgb(6,215,42)" fill-rule="evenodd" />
<path d="
M 566.454 662.105
C 567.345 656.756 568.161 651.515 570.523 646.553
C 579.081 628.572 597.406 617.564 617.266 618.231
C 628.524 618.609 639.6 622.756 647.914 630.429
C 649.849 632.215 651.742 634.031 653.597 635.899
C 653.862 636.166 655.421 637.476 655.285 637.665
C 653.82 638.925 652.048 639.799 650.497 640.95
C 647.244 643.363 644.122 646.06 641.087 648.739
C 640.033 649.669 638.93 650.523 637.931 651.516
C 637.605 651.839 637.119 652.552 636.644 652.432
C 634.514 648.719 630.334 645.599 626.616 643.646
C 623.203 641.852 619.647 640.688 615.754 640.653
C 612.372 640.622 608.986 641.174 605.888 642.556
C 584.291 652.191 588.21 688.909 612.018 692.426
C 614.709 692.824 617.241 692.819 619.906 692.267
C 624.504 691.316 628.671 689.407 632.305 686.418
C 633.919 685.091 635.237 682.65 636.983 681.649
C 640.535 684.557 643.944 687.581 647.649 690.317
C 650.021 692.069 652.852 693.542 654.991 695.561
C 654.163 696.959 652.871 697.956 651.793 699.157
C 648.72 702.584 645.329 705.797 641.398 708.23
C 618.622 722.326 586.077 715.416 572.632 691.557
C 570.52 687.809 568.799 683.759 567.789 679.568
C 566.414 673.863 565.837 667.969 566.454 662.105 Z"
opacity="1" fill="rgb(1,3,0)" fill-rule="evenodd" />
<path d="
M 583.335 537.052
C 583.935 535.71 586.111 534.715 587.326 533.904
C 590.409 531.845 593.295 529.528 596.351 527.43
C 607.24 519.955 617.975 512.223 628.739 504.568
C 641.241 495.677 654.028 487.192 666.515 478.282
C 681.978 467.247 697.33 456.074 713.178 445.592
C 717.416 442.789 721.367 439.524 725.469 436.528
C 730.071 433.166 734.923 430.161 739.489 426.736
C 742.303 424.626 745.2 422.675 748.068 420.639
C 749.572 419.572 751.235 417.983 752.97 417.349
C 755.26 416.513 758.687 417.378 761.088 417.514
C 766.871 417.842 772.679 417.752 778.453 418.061
C 778.131 418.968 776.432 419.649 775.661 420.152
C 773.136 421.798 770.797 423.71 768.396 425.529
C 758.207 433.25 747.847 440.802 737.323 448.068
C 702.793 471.911 669.015 496.869 634.326 520.481
C 625.27 526.646 616.556 533.322 607.488 539.479
C 605.124 541.084 602.81 542.756 600.471 544.396
C 599.734 544.913 598.6 546.249 597.684 546.295
C 592.921 543.352 588.79 538.901 583.335 537.052 Z"
opacity="1" fill="rgb(3,210,38)" fill-rule="evenodd" />
<path d="
M 600.723 831.145
C 607.599 822.366 614.186 813.354 620.733 804.316
C 622.558 801.797 624.378 799.269 626.245 796.782
C 626.936 795.861 628.381 794.662 628.689 793.585
C 622.736 784.513 615.811 776.039 609.598 767.138
C 607.409 764.002 604.85 761.085 602.926 757.779
C 605.045 757.242 607.343 757.569 609.516 757.604
C 613.013 757.662 616.514 757.621 620.013 757.639
C 621.766 757.649 624.991 757.072 626.532 757.851
C 630.152 765.319 636.012 771.995 640.597 778.894
C 641.129 778.596 641.376 777.78 641.679 777.275
C 642.522 775.867 643.535 774.529 644.468 773.177
C 647.99 768.071 651.2 762.434 655.207 757.697
C 659.759 757.31 664.445 757.621 669.011 757.632
C 672.375 757.641 675.728 757.322 679.081 757.319
C 678.361 758.889 677.047 760.147 676.006 761.504
C 673.886 764.268 671.863 767.101 669.788 769.899
C 664.091 777.576 658.526 786.038 651.954 792.981
C 654.641 796.212 656.907 799.925 659.406 803.315
C 663.4 808.736 667.496 814.083 671.563 819.451
C 673.471 821.97 675.361 824.52 677.402 826.933
C 678.595 828.343 680.384 829.806 681.05 831.557
C 680.552 831.906 679.493 831.708 678.913 831.683
C 677.396 831.616 675.879 831.511 674.361 831.478
C 668.472 831.351 662.487 831.192 656.607 831.432
C 654.77 830.108 653.32 827.004 652.014 825.131
C 648.206 819.67 644.603 813.861 640.482 808.642
C 638.525 809.682 636.826 813.341 635.594 815.182
C 632.034 820.501 628.555 826.443 624.281 831.212
C 622.674 831.813 620.22 831.342 618.505 831.337
C 614.504 831.326 610.501 831.296 606.501 831.319
C 604.958 831.328 602.071 831.879 600.723 831.145 Z"
opacity="1" fill="rgb(1,3,1)" fill-rule="evenodd" />
<path d="
M 664.957 683.619
C 665.486 679.753 665.992 676.353 667.735 672.788
C 675.806 656.287 698.151 655.76 713.949 657.009
C 717.708 657.307 721.568 658.412 725.323 658.419
C 726.228 649.172 720.47 641.524 711.294 639.995
C 701.094 638.295 688.332 640.251 679.998 646.813
C 679.085 646.231 678.366 643.238 677.784 642.177
C 675.368 637.781 672.96 633.413 670.668 628.952
C 678.344 624.799 686.386 621.586 695.011 620.003
C 701.466 618.818 707.936 618.519 714.478 619.124
C 719.041 619.546 723.56 620.233 727.831 621.961
C 731.268 623.351 734.869 624.976 737.793 627.298
C 750.093 637.067 750.254 652.174 750.222 666.505
C 750.199 676.836 750.188 687.168 750.183 697.5
C 750.18 702.709 749.871 708.033 750.219 713.228
C 742.168 713.646 734.037 712.871 725.989 713.391
C 725.459 712.752 725.704 711.328 725.714 710.509
C 725.74 708.249 726.226 705.256 725.717 703.077
C 724.06 704.539 722.716 706.37 721.006 707.822
C 716.942 711.274 711.533 713.88 706.311 714.942
C 689.669 718.324 669.334 710.068 665.605 692.155
C 665.018 689.335 664.733 686.499 664.957 683.619 Z
M 688.959 684.117
C 688.227 696.691 703.373 699.323 712.734 696.329
C 718.089 694.617 722.824 690.894 724.567 685.385
C 725.477 682.507 725.307 679.416 725.437 676.445
C 724.786 675.838 723.421 675.846 722.556 675.7
C 720.142 675.294 717.733 674.946 715.292 674.701
C 706.057 673.776 691.202 672.069 688.959 684.117 Z"
opacity="1" fill="rgb(1,3,0)" fill-rule="evenodd" />
<path d="
M 764.383 620.76
C 768.582 620.664 772.871 620.837 777.055 620.494
C 777.883 619.098 777.181 615.653 777.179 614.004
C 777.173 608.365 777.053 602.695 777.202 597.06
C 777.357 596.727 778.338 596.833 778.717 596.819
C 780.312 596.762 781.91 596.784 783.505 596.772
C 789.904 596.725 796.395 597.038 802.779 596.615
C 803.475 604.404 803.031 612.682 802.911 620.506
C 812.049 621.034 821.325 620.034 830.481 620.503
C 830.083 627.457 830.924 634.578 830.663 641.566
C 826.527 642.064 822.16 641.724 817.997 641.716
C 812.969 641.706 807.833 641.975 802.818 641.639
C 803.075 652.39 802.585 663.202 802.681 673.965
C 802.724 678.728 801.921 684.636 804.713 688.802
C 808.039 693.765 815.351 693.527 820.55 692.505
C 823.784 691.869 827.082 690.973 830.145 689.758
C 830.774 694.255 830.614 698.968 830.963 703.51
C 831.159 706.051 831.921 708.822 831.772 711.349
C 826.637 713.91 819.924 715.072 814.233 715.36
C 809.27 715.612 804.343 715.454 799.483 714.373
C 796.814 713.778 794.267 712.83 791.901 711.451
C 789.954 710.316 787.989 709.024 786.397 707.414
C 777.378 698.293 776.954 686.565 776.948 674.496
C 776.944 668.051 777.023 661.611 777.077 655.167
C 777.114 650.794 777.161 646.397 776.903 642.043
C 774.1 641.903 771.305 641.771 768.495 641.73
C 767.163 641.711 765.663 641.955 764.361 641.695
C 763.877 634.811 764.198 627.657 764.383 620.76 Z"
opacity="1" fill="rgb(1,3,1)" fill-rule="evenodd" />

</svg>